<?xml version="1.0" encoding="UTF-8"?>
<svg id="Layer_2" data-name="Layer 2" xmlns="http://www.w3.org/2000/svg" viewBox="0 0 243.71 129.74">
  <defs>
    <style>
      .cls-1 {
        fill: #fff;
      }

      .cls-2 {
        fill: #f15d24;
      }

      .cls-3 {
        fill: #231f20;
      }
    </style>
  </defs>
  <g id="Layer_3" data-name="Layer 3">
    <g>
      <rect class="cls-1" width="243.71" height="129.74" rx="18.58" ry="18.58"/>
      <g>
        <g>
          <path class="cls-3" d="m20.7,21.48v86.77h94.77V21.48H20.7Zm47.38,74.71c-21.58,0-39.61-13.41-44.04-31.33,4.43-17.91,22.46-31.33,44.04-31.33s39.61,13.41,44.04,31.33c-4.43,17.91-22.46,31.33-44.04,31.33Z"/>
          <g>
            <circle class="cls-3" cx="68.08" cy="64.87" r="29.65"/>
            <g>
              <path class="cls-2" d="m66.91,73.88c-.3-.74-.71-1.44-1.15-2.11-1.39-2.15-3.04-6.92-3.46-8.73-.69-3.07.03-5.57-1.08-8.13-.31-.7-.75-1.32-1.31-1.84-2.71-2.52-6.9-2.78-10.1-2.11-.58.12-1.13.33-1.65.62-.4.22-.8.49-1.19.76-2.18,3.67-3.44,7.96-3.44,12.54,0,13.57,11,24.56,24.56,24.56.96,0,1.91-.06,2.84-.17-8.74-8.74-1.09-8.22-4.01-15.38Z"/>
              <path class="cls-2" d="m85.76,47.83c-1.31-.66-2.7-.87-4.43-.25-.22.08-.54.29-.7.46-1.02,1.09-1.22,1.9-2.72,2.79-3.75,1.75-4.77,3.32-5.33,7.15-.06.41-.19.81-.41,1.17-.11.18-.25.4-.44.71-.15.24-.27.43-.37.57-.35.54-.64,1.11-.84,1.72-.71,2.25-.69,4.89.38,6.82.36.64.63,1.33.73,2.06,1.13,8.2-5.73,9.29.44,18.08,11.67-1.91,20.57-12.03,20.57-24.24,0-6.62-2.62-12.62-6.88-17.04Z"/>
            </g>
          </g>
        </g>
        <g>
          <g>
            <path class="cls-3" d="m120.53,39.48h4.25c0,5.08.21,5.92,1.17,5.92.83,0,1.04-.5,1.04-3.33,0-1.79-.17-2.5-.58-3.08-.37-.5-1.12-1.04-1.92-1.62-.71-.5-1.79-1.25-2.5-2.21-.75-.96-1.46-2.79-1.46-5.79,0-5.62,1.96-7.87,5.54-7.87,4.42,0,5.33,2.08,5.33,10.41h-4.12c0-5.71-.13-6.33-.87-6.33s-1.04.63-1.04,3.29c0,2.21.21,3.08.63,3.58.37.46,1.21,1.08,2.12,1.71.96.67,1.96,1.46,2.5,2.33.75,1.21,1.17,2.79,1.17,5.21,0,5.79-1.62,7.79-5.71,7.79-4.58,0-5.54-2.75-5.54-10Z"/>
            <path class="cls-3" d="m133.44,21.48h4.87v13.78h.04l2.79-13.78h4.96l-3.37,12.68,3.79,15.32h-5.33l-1.96-10.64-.92,3.7v6.93h-4.87v-27.99Z"/>
            <path class="cls-3" d="m151.33,39.82l-4-18.34h5.62l1.25,12.59h.08l1.21-12.59h4.67l-4,18.34v9.66h-4.83v-9.66Z"/>
            <path class="cls-3" d="m161.27,21.48h5.37l.96,20.12h.17l1.21-20.12h4.62l1.29,20.12h.17l1-20.12h4.75l-3.04,27.99h-5.71l-1.04-18.63h-.17l-1.21,18.63h-5.37l-3-27.99Z"/>
            <path class="cls-3" d="m188.27,43.82h-2.25l-.33,5.66h-4.87l3.37-27.99h6.75l3.46,27.99h-5.79l-.33-5.66Zm-.21-3.66l-.79-13.74h-.21l-.83,13.74h1.83Z"/>
            <path class="cls-3" d="m195.79,21.48h5.71c5.04,0,6.21,2.25,6.21,8.21,0,3.96-.5,5.91-2.5,6.64v.04c1.87.55,2.5,1.91,2.5,4.25v8.85h-4.83v-9.1c0-1.45-.46-1.87-1.5-1.87h-.75v10.98h-4.83v-27.99Zm5.5,13.7c1.25,0,1.58-.47,1.58-4.17,0-4.3-.21-4.93-1.5-4.93h-.75v9.1h.67Z"/>
            <path class="cls-3" d="m209.75,21.48h6.54l2.75,19.78h.08l-.62-19.78h4.25v27.99h-5.67l-3.54-21.78h-.08l.54,21.78h-4.25v-27.99Z"/>
          </g>
          <g>
            <path class="cls-2" d="m120.53,52.84h10.5c8.67,0,12.01,4.04,12.01,19.71,0,14.82-3.17,19.62-10.75,19.62h-2v16.08h-9.75v-55.41Zm10.92,31.92c2.08,0,2.75-1.26,2.75-11.03,0-10.36-.58-11.79-2.75-11.79h-1.17v22.82h1.17Z"/>
            <path class="cls-2" d="m149.86,52.84h9.67v46.32h5.84v9.09h-15.51v-55.41Z"/>
            <path class="cls-2" d="m171.44,92.75v-39.91h9.67v40.25c0,5.42,1,6,2.25,6s2.08-.58,2.08-6v-40.25h8.09v39.91c0,12.58-4.17,15.5-11,15.5s-11.09-2.92-11.09-15.5Z"/>
            <path class="cls-2" d="m200.51,88.46h8.5c0,10.06.42,11.71,2.33,11.71,1.67,0,2.08-.99,2.08-6.6,0-3.55-.33-4.95-1.17-6.1-.75-.99-2.25-2.06-3.84-3.22-1.42-.99-3.58-2.47-5-4.37-1.5-1.9-2.92-5.53-2.92-11.46,0-11.13,3.92-15.58,11.09-15.58,8.84,0,10.67,4.12,10.67,20.61h-8.25c0-11.3-.25-12.53-1.75-12.53s-2.08,1.24-2.08,6.51c0,4.37.42,6.1,1.25,7.09.75.91,2.42,2.14,4.25,3.38,1.92,1.32,3.92,2.89,5,4.62,1.5,2.39,2.33,5.53,2.33,10.31,0,11.46-3.25,15.42-11.42,15.42-9.17,0-11.09-5.44-11.09-19.79Z"/>
          </g>
        </g>
      </g>
    </g>
  </g>
</svg>